<svg width="122.88000000000001" height="103.53"  enable-background="new 0 0 512 512" xmlns="http://www.w3.org/2000/svg" xml:space="preserve" version="1.1">

 <g>
  <title>Layer 1</title>
  <g stroke="null" id="svg_1">
   <path stroke="null" id="svg_2" clip-rule="evenodd" fill="white" fill-rule="evenodd" d="m5.47,0l111.93,0c3.01,0 5.47,2.46 5.47,5.47l0,92.58c0,3.01 -2.46,5.47 -5.47,5.47l-111.93,0c-3.01,0 -5.47,-2.46 -5.47,-5.47l0,-92.58c0,-3.01 2.46,-5.47 5.47,-5.47l0,0zm26.37,38.55l17.79,18.42l2.14,2.13l-2.12,2.16l-17.97,19.05l-5.07,-5l15.85,-16.15l-15.65,-15.56l5.03,-5.05l0,0zm62.26,40.86l-39.41,0l0,-6.84l39.41,0l0,6.84l0,0zm-55.91,-69.58c3.19,0 5.78,2.59 5.78,5.78s-2.59,5.78 -5.78,5.78c-3.19,0 -5.78,-2.59 -5.78,-5.78s2.59,-5.78 5.78,-5.78l0,0zm-19.24,0c3.19,0 5.78,2.59 5.78,5.78s-2.59,5.78 -5.78,5.78c-3.19,0 -5.78,-2.59 -5.78,-5.78s2.58,-5.78 5.78,-5.78l0,0zm-11.46,-4.42l107.91,0c1.15,0 2.09,0.94 2.09,2.09l0,18.32l-112.09,0l0,-18.32c0,-1.15 0.94,-2.09 2.09,-2.09l0,0z" class="st0"/>
  </g>
 </g>
</svg>